<?xml version="1.0" encoding="UTF-8" standalone="no"?>
<!DOCTYPE svg PUBLIC "-//W3C//DTD SVG 1.1//EN"
        "http://www.w3.org/Graphics/SVG/1.1/DTD/svg11.dtd">

<svg xmlns="http://www.w3.org/2000/svg"
     width="6in" height="4in"
     viewBox="0 0 5000 3500">
    <defs>
        <linearGradient id="backgroundGradient" x1="0" x2="0" y1="0" y2="1">
            <stop offset="0%" stop-color="<%= topBgColour %>"/>
            <stop offset="100%" stop-color="<%= bottomBgColour %>"/>
        </linearGradient>
    </defs>

    <rect x="0" y="0" rx="15" ry="15" width="100%" height="100%" fill="url(#backgroundGradient)"/>
    <svg y="400" x="400">
        <path id="pumpkin"
              fill="<%= pumpkinColour %>" stroke="none" stroke-width="10"
              d="M 434.25,1653.12
               C 385.49,1272.90 529.02,681.32 1192.00,328.00
                 1192.00,328.00 1410.17,164.00 1623.51,231.93
                 1745.44,270.75 1816.20,560.66 1968.94,557.62
                 2214.16,552.73 2403.99,377.68 2625.25,320.75
                 2911.81,247.04 3034.83,241.80 3034.83,241.80
                 3034.83,241.80 3241.72,309.57 3404.93,458.93
                 3603.64,640.76 3766.35,929.65 3775.04,1189.26
                 3781.59,1385.12 3757.35,1623.84 3656.60,1796.23
                 3508.88,2049.00 3264.00,2200.00 3264.00,2200.00
                 3264.00,2200.00 3028.09,2494.41 2664.73,2516.69
                 2438.31,2530.58 2190.44,2336.28 1924.53,2265.02
                 1732.84,2213.66 1519.14,2282.03 1357.04,2274.89
                 921.35,2255.71 720.00,2088.00 720.00,2088.00
                 659.66,2120.16 475.38,1973.77 434.25,1653.12 Z
               M 3094.05,1796.23" />

        <path id="eyes-cross"
              visibility="<%= eyesCrossedState %>"
              fill="<%= eyesColour %>" stroke="none" stroke-width="1"
              d="M 1050.50,929.50
           C 1050.50,929.50 1281.50,1083.50 1281.50,1083.50
             1281.50,1083.50 1485.00,863.50 1485.00,863.50
             1485.00,863.50 1628.00,929.50 1628.00,929.50
             1628.00,929.50 1485.00,1127.50 1485.00,1127.50
             1485.00,1127.50 1666.50,1325.50 1666.50,1325.50
             1666.50,1325.50 1534.50,1446.50 1534.50,1446.50
             1534.50,1446.50 1375.00,1259.50 1375.00,1259.50
             1375.00,1259.50 1248.50,1408.00 1248.50,1408.00
             1248.50,1408.00 1122.00,1320.00 1122.00,1320.00
             1122.00,1320.00 1221.00,1166.00 1221.00,1166.00
             1221.00,1166.00 1028.50,1017.50 1028.50,1017.50
             1028.50,1017.50 1050.50,929.50 1050.50,929.50 Z
           M 2475.00,935.00
           C 2475.00,935.00 2689.50,1089.00 2689.50,1089.00
             2689.50,1089.00 2838.00,858.00 2838.00,858.00
             2838.00,858.00 2964.50,935.00 2964.50,935.00
             2964.50,935.00 2849.00,1116.50 2849.00,1116.50
             2849.00,1116.50 3047.00,1265.00 3047.00,1265.00
             3047.00,1265.00 2970.00,1353.00 2970.00,1353.00
             2970.00,1353.00 2805.00,1265.00 2805.00,1265.00
             2805.00,1265.00 2673.00,1441.00 2673.00,1441.00
             2673.00,1441.00 2530.00,1375.00 2530.00,1375.00
             2530.00,1375.00 2623.50,1182.50 2623.50,1182.50
             2623.50,1182.50 2431.00,1045.00 2431.00,1045.00
             2431.00,1045.00 2475.00,935.00 2475.00,935.00 Z" />

        <path id="eyes-default"
              visibility="<%= eyesDefaultState %>"
              fill="<%= eyesColour %>" stroke="none" stroke-width="1"
              d="M 917.85,1149.78
                   C 915.14,1149.78 1080.63,1011.87 1238.61,903.05
                     1367.87,814.01 1495.21,750.07 1495.21,750.07
                     1495.21,750.07 1545.28,858.79 1613.64,873.44
                     1683.44,888.40 1771.55,809.29 1771.55,809.29
                     1804.21,821.86 1609.31,1165.98 1554.43,1149.78
                     1554.43,1154.72 1722.21,1218.87 1722.21,1218.87
                     1771.85,1325.61 1417.73,1448.54 1386.65,1381.71
                     1364.87,1466.78 1147.45,1279.45 1179.39,1154.72
                     1179.39,1154.72 942.53,1253.41 942.53,1253.41
                     942.53,1253.41 922.79,1149.78 917.85,1149.78 Z
                   M 2482.15,1179.39
                   C 2482.15,1179.39 2583.14,1090.94 2664.73,991.87
                     2755.38,881.80 2827.58,759.94 2827.58,759.94
                     2827.58,759.94 2879.85,905.68 2955.88,932.66
                     3032.82,959.96 3133.53,868.51 3133.53,868.51
                     3133.53,868.51 3125.29,924.18 3089.11,972.13
                     3026.71,1054.86 2921.34,1149.78 2921.34,1149.78
                     2921.34,1149.78 2991.46,1124.60 3029.90,1149.78
                     3062.54,1171.17 3064.44,1243.54 3064.44,1243.54
                     3064.44,1243.54 3070.85,1274.83 3059.51,1302.76
                     3040.73,1348.98 3000.29,1401.45 3000.29,1401.45
                     3000.29,1401.45 2943.64,1409.56 2896.66,1386.65
                     2842.93,1360.44 2797.97,1302.76 2797.97,1302.76
                     2797.97,1302.76 2590.71,1490.28 2590.71,1490.28
                     2590.71,1490.28 2507.69,1517.85 2462.41,1485.34
                     2411.77,1448.98 2398.26,1352.10 2398.26,1352.10
                     2398.26,1352.10 2506.82,1248.48 2506.82,1248.48
                     2506.82,1248.48 2482.15,1179.39 2482.15,1179.39 Z" />

        <path id="eyes-triangle"
              visibility="<%= eyesTriangleBoyState %>"
              fill="<%= eyesColour %>" stroke="none" stroke-width="1"
              d="M 1164.47,1262.44
           C 1164.47,1262.44 1553.56,780.98 1553.56,780.98
             1553.56,780.98 1735.51,1259.64 1735.51,1259.64
             1735.51,1259.64 1164.47,1262.44 1164.47,1262.44 Z
           M 2640.00,792.00
           C 2640.00,792.00 3017.54,1284.83 3017.54,1284.83
             3017.54,1284.83 2440.91,1279.24 2440.91,1279.24
             2440.91,1279.24 2640.00,792.00 2640.00,792.00 Z" />

        <path id="eyes-triangle"
              visibility="<%= eyesTriangleGirlState %>"
              fill="<%= eyesColour %>" stroke="none" stroke-width="1"
              d="M 2377.94,1345.01
           C 2377.94,1345.01 2834.42,740.63 2834.42,740.63
             2834.42,740.63 3077.81,1213.42 3077.81,1213.42
             3077.81,1213.42 3106.87,1224.41 3139.53,1212.26
             3180.93,1196.85 3228.03,1157.53 3228.03,1157.53
             3228.03,1157.53 3194.80,1205.96 3161.65,1232.05
             3132.13,1255.29 3102.26,1256.51 3102.26,1256.51
             3102.26,1256.51 3115.07,1293.77 3115.07,1293.77
             3115.07,1293.77 3157.11,1297.40 3201.25,1279.80
             3251.60,1259.72 3304.89,1218.08 3304.89,1218.08
             3304.89,1218.08 3269.33,1262.01 3224.54,1294.94
             3181.45,1326.61 3129.05,1347.34 3129.05,1347.34
             3129.05,1347.34 2377.94,1345.01 2377.94,1345.01 Z
           M 970.04,1177.32
           C 1008.12,1221.66 1064.36,1251.85 1064.36,1251.85
             1064.36,1251.85 1674.57,1273.98 1674.57,1273.98
             1674.57,1273.98 1525.51,741.79 1525.51,741.79
             1525.51,741.79 1126.08,1143.55 1126.08,1143.55
             1126.08,1143.55 1086.86,1141.27 1051.56,1123.75
             1011.99,1104.12 975.86,1069.02 975.86,1069.02
             975.86,1069.02 985.52,1097.32 1013.13,1119.10
             1048.11,1146.70 1102.79,1169.17 1102.79,1169.17
             1102.79,1169.17 1077.17,1195.95 1077.17,1195.95
             1077.17,1195.95 1041.75,1200.97 1013.13,1179.65
             963.43,1142.64 908.32,1070.19 908.32,1070.19
             908.32,1070.19 930.14,1130.87 970.04,1177.32 Z" />

        <path id="mouth-default"
              visibility="<%= mouthDefaultState %>"
              fill="<%= mouthColour %>" stroke="none" stroke-width="1"
              d="M 2033.09,1894.92
               C 1988.68,2013.35 1804.74,2074.43 1702.47,2042.96
                 1573.78,2003.37 1559.36,1746.88 1559.36,1746.88
                 1559.36,1746.88 1751.81,1500.15 1751.81,1500.15
                 1751.81,1500.15 1909.72,1667.92 1894.92,1653.12
                 1894.92,1653.12 2057.76,1510.01 2057.76,1510.01
                 2057.76,1510.01 2067.29,1572.46 2097.24,1613.64
                 2126.50,1653.87 2176.20,1672.86 2176.20,1672.86
                 2176.20,1672.86 2309.43,1667.92 2388.39,1628.45
                 2432.80,1924.53 2200.87,1944.27 2200.87,1944.27
                 2200.87,1944.27 2077.50,1909.72 2033.09,1894.92 Z" />

        <path id="mouth-fangs"
              visibility="<%= mouthFangsState %>"
              fill="<%= mouthColour %>" stroke="none" stroke-width="1"
              d="M 1193.00,1464.00
           C 1193.00,1464.00 1147.00,1440.97 1147.00,1440.97
             1147.00,1440.97 1109.00,1425.86 1109.00,1425.86
             1109.00,1425.86 1099.00,1422.69 1099.00,1422.69
             1088.09,1418.34 1076.21,1414.57 1066.00,1408.78
             1060.83,1405.85 1057.87,1400.93 1049.00,1397.04
             1040.59,1393.35 1020.39,1391.01 1011.00,1391.00
             1000.88,1390.98 991.84,1390.25 982.00,1393.21
             964.07,1398.59 951.77,1415.44 951.04,1434.00
             950.35,1451.51 960.90,1468.90 977.00,1475.96
             984.41,1479.21 991.04,1479.96 999.00,1480.00
             1013.04,1480.07 1012.92,1484.23 1024.00,1489.51
             1024.00,1489.51 1034.00,1493.51 1034.00,1493.51
             1034.00,1493.51 1065.00,1505.74 1065.00,1505.74
             1100.88,1517.62 1125.90,1531.61 1159.00,1548.53
             1159.00,1548.53 1177.00,1557.52 1177.00,1557.52
             1179.93,1558.91 1184.26,1560.29 1185.98,1563.21
             1187.20,1565.29 1187.00,1568.63 1187.00,1571.00
             1187.00,1571.00 1187.00,1643.00 1187.00,1643.00
             1187.02,1654.56 1189.77,1664.98 1197.32,1674.00
             1213.71,1693.58 1244.40,1695.45 1262.99,1677.91
             1277.22,1664.47 1277.00,1650.91 1277.00,1633.00
             1277.00,1633.00 1277.00,1608.00 1277.00,1608.00
             1277.00,1608.00 1304.00,1619.14 1304.00,1619.14
             1304.00,1619.14 1326.00,1626.09 1326.00,1626.09
             1326.00,1626.09 1341.00,1633.51 1341.00,1633.51
             1341.00,1633.51 1352.00,1637.98 1352.00,1637.98
             1352.00,1637.98 1388.00,1656.03 1388.00,1656.03
             1388.00,1656.03 1399.00,1660.51 1399.00,1660.51
             1399.00,1660.51 1416.00,1668.96 1416.00,1668.96
             1416.00,1668.96 1443.00,1683.03 1443.00,1683.03
             1443.00,1683.03 1454.00,1687.51 1454.00,1687.51
             1454.00,1687.51 1471.00,1695.96 1471.00,1695.96
             1471.00,1695.96 1505.00,1711.00 1505.00,1711.00
             1502.82,1721.86 1500.50,1732.89 1500.04,1744.00
             1500.04,1744.00 1501.00,1761.00 1501.00,1761.00
             1501.00,1761.00 1501.00,1790.00 1501.00,1790.00
             1501.46,1829.01 1547.37,1849.92 1575.99,1822.91
             1590.54,1809.17 1590.00,1795.24 1590.00,1777.00
             1590.00,1777.00 1590.00,1751.00 1590.00,1751.00
             1590.00,1751.00 1623.00,1767.03 1623.00,1767.03
             1623.00,1767.03 1633.00,1773.49 1633.00,1773.49
             1633.00,1773.49 1654.00,1783.96 1654.00,1783.96
             1654.00,1783.96 1683.00,1798.96 1683.00,1798.96
             1692.26,1802.98 1698.30,1802.31 1703.00,1803.63
             1703.00,1803.63 1733.00,1815.09 1733.00,1815.09
             1733.00,1815.09 1741.00,1818.96 1741.00,1818.96
             1741.00,1818.96 1751.00,1822.90 1751.00,1822.90
             1757.90,1826.45 1760.98,1829.83 1769.00,1832.48
             1784.09,1837.47 1793.60,1836.57 1798.00,1837.78
             1798.00,1837.78 1811.00,1842.58 1811.00,1842.58
             1811.00,1842.58 1837.00,1851.80 1837.00,1851.80
             1837.00,1851.80 1862.00,1857.56 1862.00,1857.56
             1862.00,1857.56 1870.00,1858.46 1870.00,1858.46
             1870.00,1858.46 1891.00,1862.00 1891.00,1862.00
             1891.00,1862.00 1891.00,1990.00 1891.00,1990.00
             1891.01,1997.60 1892.21,2005.07 1895.49,2012.00
             1907.85,2038.09 1943.15,2044.96 1965.00,2026.68
             1976.43,2017.11 1980.98,2004.56 1981.00,1990.00
             1981.00,1990.00 1981.00,1870.00 1981.00,1870.00
             1985.31,1870.57 1986.46,1870.94 1991.00,1871.23
             1994.48,1871.04 1997.52,1870.85 2001.00,1871.23
             2014.49,1873.85 2020.83,1876.98 2036.00,1877.00
             2036.00,1877.00 2068.00,1877.00 2068.00,1877.00
             2068.00,1877.00 2084.00,1876.00 2084.00,1876.00
             2084.00,1876.00 2122.00,1876.00 2122.00,1876.00
             2132.13,1876.02 2131.71,1877.74 2141.00,1879.39
             2141.00,1879.39 2168.00,1882.00 2168.00,1882.00
             2168.00,1882.00 2282.00,1882.00 2282.00,1882.00
             2282.00,1882.00 2282.00,2003.00 2282.00,2003.00
             2282.02,2014.97 2284.20,2015.91 2286.47,2026.00
             2286.47,2026.00 2288.00,2039.00 2288.00,2039.00
             2289.67,2047.20 2291.13,2048.13 2293.68,2055.00
             2295.72,2060.50 2295.75,2063.38 2299.09,2069.00
             2306.88,2082.11 2320.75,2090.36 2336.00,2090.96
             2361.42,2091.96 2382.95,2070.41 2381.96,2045.00
             2381.58,2035.22 2379.51,2028.25 2377.33,2019.00
             2377.33,2019.00 2374.87,2007.00 2374.87,2007.00
             2372.84,1998.64 2371.01,1995.81 2371.00,1987.00
             2371.00,1987.00 2371.00,1878.00 2371.00,1878.00
             2371.00,1878.00 2381.00,1876.30 2381.00,1876.30
             2386.89,1875.46 2387.25,1876.68 2396.00,1874.79
             2396.00,1874.79 2408.00,1871.33 2408.00,1871.33
             2408.00,1871.33 2430.00,1868.79 2430.00,1868.79
             2439.22,1866.80 2440.62,1864.58 2447.00,1862.67
             2447.00,1862.67 2478.00,1854.14 2478.00,1854.14
             2496.84,1847.68 2504.24,1839.31 2524.00,1836.85
             2524.00,1836.85 2533.00,1835.60 2533.00,1835.60
             2536.59,1836.03 2543.04,1842.02 2544.87,1845.09
             2546.98,1848.64 2546.98,1853.71 2553.52,1862.00
             2558.48,1868.31 2564.61,1871.78 2569.62,1877.28
             2569.62,1877.28 2578.18,1889.00 2578.18,1889.00
             2578.18,1889.00 2588.00,1898.09 2588.00,1898.09
             2599.31,1908.61 2608.64,1915.60 2625.00,1914.96
             2632.68,1914.66 2641.61,1911.90 2648.00,1907.64
             2653.02,1904.29 2657.29,1900.02 2660.64,1895.00
             2672.58,1877.10 2668.61,1852.65 2656.24,1836.00
             2652.07,1830.38 2649.42,1829.19 2645.18,1824.83
             2645.18,1824.83 2636.82,1814.00 2636.82,1814.00
             2636.82,1814.00 2627.53,1804.91 2627.53,1804.91
             2627.53,1804.91 2620.00,1792.00 2620.00,1792.00
             2620.00,1792.00 2632.00,1785.97 2632.00,1785.97
             2632.00,1785.97 2650.00,1780.51 2650.00,1780.51
             2655.22,1778.04 2667.20,1769.91 2672.00,1766.25
             2679.36,1760.65 2688.88,1747.80 2699.00,1748.02
             2702.00,1748.09 2704.64,1750.34 2707.00,1752.00
             2707.00,1752.00 2722.00,1762.05 2722.00,1762.05
             2722.00,1762.05 2733.00,1768.79 2733.00,1768.79
             2733.00,1768.79 2743.00,1776.96 2743.00,1776.96
             2743.00,1776.96 2768.00,1793.10 2768.00,1793.10
             2776.87,1799.04 2778.36,1804.00 2791.00,1807.79
             2827.99,1818.90 2861.15,1784.21 2846.37,1748.00
             2842.84,1739.34 2831.73,1726.52 2824.00,1721.36
             2816.76,1716.53 2808.21,1713.34 2802.00,1707.00
             2811.89,1706.54 2818.07,1703.07 2827.00,1700.90
             2827.00,1700.90 2843.00,1698.08 2843.00,1698.08
             2852.32,1695.53 2863.12,1688.66 2870.00,1681.99
             2878.24,1674.00 2887.76,1666.81 2897.00,1659.99
             2900.10,1657.70 2904.03,1653.01 2908.00,1654.10
             2911.54,1655.07 2925.02,1665.28 2929.00,1667.97
             2929.00,1667.97 2943.00,1676.46 2943.00,1676.46
             2946.75,1679.45 2952.67,1684.60 2955.96,1688.00
             2955.96,1688.00 2966.00,1698.82 2966.00,1698.82
             2966.00,1698.82 2978.68,1708.51 2978.68,1708.51
             2978.68,1708.51 2988.04,1719.96 2988.04,1719.96
             2995.92,1727.84 3006.85,1732.52 3018.00,1732.96
             3043.22,1733.95 3064.95,1712.22 3063.96,1687.00
             3063.37,1671.96 3051.01,1649.98 3040.00,1640.18
             3040.00,1640.18 3025.00,1629.79 3025.00,1629.79
             3025.00,1629.79 3007.00,1612.18 3007.00,1612.18
             3000.57,1606.52 2993.00,1602.42 2986.00,1597.57
             2977.75,1591.84 2966.74,1583.50 2958.00,1579.00
             2965.57,1563.42 2968.13,1544.51 2958.91,1529.00
             2943.23,1502.61 2906.48,1501.31 2891.00,1518.00
             2878.80,1508.00 2869.87,1500.38 2853.00,1501.04
             2829.62,1501.96 2810.96,1520.62 2810.04,1544.00
             2809.19,1565.60 2823.96,1578.96 2838.00,1593.00
             2833.15,1595.06 2825.15,1600.86 2821.00,1604.32
             2817.56,1607.19 2815.29,1610.30 2811.00,1611.98
             2811.00,1611.98 2800.00,1614.91 2800.00,1614.91
             2800.00,1614.91 2780.00,1620.54 2780.00,1620.54
             2768.46,1622.62 2756.14,1624.04 2745.00,1627.86
             2737.02,1630.60 2730.46,1633.56 2723.00,1637.48
             2720.05,1639.04 2715.41,1642.39 2712.00,1641.44
             2710.22,1640.94 2702.31,1634.52 2700.00,1632.86
             2685.72,1622.60 2676.94,1611.78 2658.00,1611.04
             2633.53,1610.08 2612.99,1629.70 2612.04,1654.00
             2611.77,1660.85 2613.85,1669.91 2616.98,1676.00
             2618.54,1679.05 2623.72,1684.92 2622.82,1688.00
             2622.00,1690.78 2615.64,1695.78 2613.00,1697.02
             2609.30,1698.75 2600.97,1698.38 2592.00,1702.98
             2585.08,1706.53 2575.72,1715.33 2569.02,1717.24
             2563.96,1718.67 2562.92,1713.73 2561.00,1710.00
             2553.77,1696.00 2552.05,1694.98 2542.67,1683.00
             2542.67,1683.00 2526.67,1662.00 2526.67,1662.00
             2515.69,1647.99 2508.87,1640.06 2490.00,1638.17
             2452.97,1634.47 2428.18,1675.85 2447.71,1707.00
             2447.71,1707.00 2461.33,1725.00 2461.33,1725.00
             2461.33,1725.00 2470.75,1738.00 2470.75,1738.00
             2476.17,1745.17 2478.76,1745.95 2482.00,1755.00
             2471.43,1756.91 2466.00,1761.22 2457.00,1765.51
             2449.37,1769.15 2432.71,1773.41 2424.00,1775.91
             2416.82,1777.97 2411.75,1780.89 2404.00,1781.00
             2401.32,1781.03 2395.34,1781.18 2393.00,1780.49
             2389.84,1779.56 2385.87,1776.27 2383.00,1774.35
             2383.00,1774.35 2365.00,1762.14 2365.00,1762.14
             2365.00,1762.14 2335.01,1743.10 2335.01,1743.10
             2329.82,1739.07 2322.20,1729.36 2317.58,1724.00
             2317.58,1724.00 2306.57,1712.00 2306.57,1712.00
             2302.86,1706.84 2303.97,1702.09 2299.49,1694.00
             2291.52,1679.62 2275.50,1670.39 2259.00,1671.04
             2234.39,1672.00 2216.29,1691.66 2216.00,1716.00
             2215.90,1724.89 2215.68,1731.35 2218.52,1740.00
             2223.50,1755.22 2245.62,1780.07 2257.00,1792.00
             2257.00,1792.00 2168.00,1792.00 2168.00,1792.00
             2168.00,1792.00 2137.00,1786.22 2137.00,1786.22
             2137.00,1786.22 2113.00,1786.22 2113.00,1786.22
             2113.00,1786.22 2098.00,1787.00 2098.00,1787.00
             2098.00,1787.00 2041.00,1787.00 2041.00,1787.00
             2041.00,1787.00 2008.00,1780.98 2008.00,1780.98
             2008.00,1780.98 1993.00,1780.98 1993.00,1780.98
             1993.00,1780.98 1981.00,1780.00 1981.00,1780.00
             1981.00,1780.00 1981.00,1739.00 1981.00,1739.00
             1981.00,1726.79 1981.69,1716.20 1975.49,1705.00
             1958.59,1674.50 1913.41,1674.50 1896.51,1705.00
             1890.62,1715.63 1891.00,1725.40 1891.00,1737.00
             1891.00,1737.00 1891.00,1771.00 1891.00,1771.00
             1891.00,1771.00 1863.00,1765.56 1863.00,1765.56
             1863.00,1765.56 1832.00,1754.52 1832.00,1754.52
             1832.00,1754.52 1821.00,1751.56 1821.00,1751.56
             1821.00,1751.56 1811.00,1748.43 1811.00,1748.43
             1811.00,1748.43 1800.00,1746.20 1800.00,1746.20
             1800.00,1746.20 1785.00,1739.21 1785.00,1739.21
             1785.00,1739.21 1771.00,1733.91 1771.00,1733.91
             1771.00,1733.91 1760.00,1728.81 1760.00,1728.81
             1760.00,1728.81 1745.00,1723.48 1745.00,1723.48
             1745.00,1723.48 1738.00,1720.04 1738.00,1720.04
             1738.00,1720.04 1710.00,1712.48 1710.00,1712.48
             1710.00,1712.48 1692.00,1701.98 1692.00,1701.98
             1692.00,1701.98 1672.00,1691.97 1672.00,1691.97
             1672.00,1691.97 1662.00,1685.51 1662.00,1685.51
             1662.00,1685.51 1636.00,1672.49 1636.00,1672.49
             1636.00,1672.49 1624.00,1668.29 1624.00,1668.29
             1624.00,1668.29 1599.00,1658.00 1599.00,1658.00
             1599.00,1658.00 1603.16,1624.00 1603.16,1624.00
             1603.16,1624.00 1605.00,1603.00 1605.00,1603.00
             1605.00,1603.00 1607.00,1579.00 1607.00,1579.00
             1607.00,1579.00 1607.00,1564.00 1607.00,1564.00
             1606.98,1552.44 1604.23,1542.02 1596.68,1533.00
             1579.92,1512.97 1548.50,1511.58 1530.04,1530.04
             1516.64,1543.44 1517.03,1556.61 1517.00,1574.00
             1517.00,1574.00 1515.96,1586.00 1515.96,1586.00
             1515.96,1586.00 1515.96,1597.00 1515.96,1597.00
             1515.96,1597.00 1514.00,1617.00 1514.00,1617.00
             1505.36,1611.43 1497.84,1609.23 1489.00,1605.02
             1489.00,1605.02 1453.00,1586.97 1453.00,1586.97
             1453.00,1586.97 1441.00,1582.02 1441.00,1582.02
             1441.00,1582.02 1430.00,1575.96 1430.00,1575.96
             1430.00,1575.96 1398.00,1559.97 1398.00,1559.97
             1398.00,1559.97 1386.00,1555.02 1386.00,1555.02
             1386.00,1555.02 1353.00,1539.81 1353.00,1539.81
             1353.00,1539.81 1324.00,1530.30 1324.00,1530.30
             1324.00,1530.30 1300.00,1518.47 1300.00,1518.47
             1296.58,1516.80 1281.52,1509.90 1280.03,1507.59
             1278.26,1504.84 1279.93,1499.97 1280.58,1497.00
             1281.65,1492.10 1282.94,1481.95 1283.00,1477.00
             1283.00,1477.00 1283.00,1453.00 1283.00,1453.00
             1283.00,1453.00 1282.04,1441.00 1282.04,1441.00
             1282.04,1441.00 1282.04,1426.00 1282.04,1426.00
             1281.95,1414.97 1278.83,1404.55 1271.68,1396.00
             1255.39,1376.54 1225.50,1374.64 1207.01,1392.09
             1192.46,1405.83 1193.00,1419.76 1193.00,1438.00
             1193.00,1438.00 1193.00,1464.00 1193.00,1464.00 Z" />

        <path id="mouth-wide"
              visibility="<%= mouthWideState %>"
              fill="<%= mouthColour %>" stroke="none" stroke-width="1"
              d="M 1133.00,1364.00
           C 1133.00,1364.00 1037.96,1539.72 1061.50,1650.00
             1089.77,1782.43 1182.50,1919.50 1182.50,1919.50
             1182.50,1919.50 1310.34,1896.98 1490.50,1919.50
             1530.28,1924.47 1578.70,1964.49 1622.50,1969.00
             1663.35,1973.20 1717.18,1940.29 1760.00,1947.00
             1861.71,1962.93 1963.47,1966.85 2062.50,1991.00
             2101.76,2000.58 2138.87,2044.05 2178.00,2046.00
             2265.17,2050.34 2347.74,2006.29 2420.00,2018.50
             2568.60,2043.60 2678.50,2106.50 2678.50,2106.50
             2678.50,2106.50 2822.48,1960.61 2893.00,1809.50
             2956.90,1672.56 2948.00,1529.00 2948.00,1529.00
             2948.00,1529.00 2734.71,1784.16 2651.00,1815.00
             2604.43,1832.16 2569.54,1886.09 2535.50,1853.50
             2546.50,1732.50 2442.00,1650.00 2442.00,1650.00
             2442.00,1650.00 2255.00,1859.00 2255.00,1859.00
             2255.00,1859.00 2233.00,1650.00 2233.00,1650.00
             2233.00,1650.00 2051.50,1749.00 2051.50,1749.00
             2051.50,1749.00 2034.99,1677.13 1991.00,1639.00
             1952.92,1606.00 1886.50,1606.00 1886.50,1606.00
             1886.50,1606.00 1804.00,1721.50 1804.00,1721.50
             1804.00,1721.50 1694.00,1606.00 1688.50,1606.00
             1683.00,1606.00 1529.00,1782.00 1529.00,1782.00
             1529.00,1782.00 1527.90,1636.20 1474.00,1611.50
             1386.00,1655.50 1265.00,1661.00 1265.00,1661.00
             1265.00,1661.00 1133.00,1364.00 1133.00,1364.00 Z" />

        <path id="stalk"
              fill="<%= stalkColour %>" stroke="none" stroke-width="1"
              d="M 1850.51,177.65
           C 1850.51,182.58 2215.67,261.54 2215.67,261.54
             2215.67,261.54 2195.94,439.19 2195.94,439.19
             2195.94,439.19 2063.64,521.41 1959.07,503.34
             1864.27,486.95 1796.23,370.10 1796.23,370.10
             1796.23,370.10 1850.51,172.71 1850.51,177.65 Z" />
    </svg>
</svg>
