<?xml version="1.0" encoding="UTF-8" standalone="no"?>
<!DOCTYPE svg PUBLIC "-//W3C//DTD SVG 1.1//EN"
        "http://www.w3.org/Graphics/SVG/1.1/DTD/svg11.dtd">

<svg xmlns="http://www.w3.org/2000/svg"
     width="6in" height="4in"
     viewBox="0 0 5000 3500">
    <defs>
        <linearGradient id="backgroundGradient" x1="0" x2="0" y1="0" y2="1">
            <stop offset="0%" stop-color="green"/>
            <stop offset="100%" stop-color="pink"/>
        </linearGradient>
    </defs>

    <rect x="0" y="0" rx="15" ry="15" width="100%" height="100%" fill="url(#backgroundGradient)"/>
    <svg y="400" x="400">
        <path id="pumpkin"
              fill="<%= pumpkinColour %>" stroke="none" stroke-width="10"
              d="M 434.25,1653.12
               C 385.49,1272.90 529.02,681.32 1192.00,328.00
                 1192.00,328.00 1410.17,164.00 1623.51,231.93
                 1745.44,270.75 1816.20,560.66 1968.94,557.62
                 2214.16,552.73 2403.99,377.68 2625.25,320.75
                 2911.81,247.04 3034.83,241.80 3034.83,241.80
                 3034.83,241.80 3241.72,309.57 3404.93,458.93
                 3603.64,640.76 3766.35,929.65 3775.04,1189.26
                 3781.59,1385.12 3757.35,1623.84 3656.60,1796.23
                 3508.88,2049.00 3264.00,2200.00 3264.00,2200.00
                 3264.00,2200.00 3028.09,2494.41 2664.73,2516.69
                 2438.31,2530.58 2190.44,2336.28 1924.53,2265.02
                 1732.84,2213.66 1519.14,2282.03 1357.04,2274.89
                 921.35,2255.71 720.00,2088.00 720.00,2088.00
                 659.66,2120.16 475.38,1973.77 434.25,1653.12 Z
               M 3094.05,1796.23" />

        <path id="eyes"
              fill="<%= eyesColour %>" stroke="none" stroke-width="1"
              d="M 917.85,1149.78
                   C 915.14,1149.78 1080.63,1011.87 1238.61,903.05
                     1367.87,814.01 1495.21,750.07 1495.21,750.07
                     1495.21,750.07 1545.28,858.79 1613.64,873.44
                     1683.44,888.40 1771.55,809.29 1771.55,809.29
                     1804.21,821.86 1609.31,1165.98 1554.43,1149.78
                     1554.43,1154.72 1722.21,1218.87 1722.21,1218.87
                     1771.85,1325.61 1417.73,1448.54 1386.65,1381.71
                     1364.87,1466.78 1147.45,1279.45 1179.39,1154.72
                     1179.39,1154.72 942.53,1253.41 942.53,1253.41
                     942.53,1253.41 922.79,1149.78 917.85,1149.78 Z
                   M 2482.15,1179.39
                   C 2482.15,1179.39 2583.14,1090.94 2664.73,991.87
                     2755.38,881.80 2827.58,759.94 2827.58,759.94
                     2827.58,759.94 2879.85,905.68 2955.88,932.66
                     3032.82,959.96 3133.53,868.51 3133.53,868.51
                     3133.53,868.51 3125.29,924.18 3089.11,972.13
                     3026.71,1054.86 2921.34,1149.78 2921.34,1149.78
                     2921.34,1149.78 2991.46,1124.60 3029.90,1149.78
                     3062.54,1171.17 3064.44,1243.54 3064.44,1243.54
                     3064.44,1243.54 3070.85,1274.83 3059.51,1302.76
                     3040.73,1348.98 3000.29,1401.45 3000.29,1401.45
                     3000.29,1401.45 2943.64,1409.56 2896.66,1386.65
                     2842.93,1360.44 2797.97,1302.76 2797.97,1302.76
                     2797.97,1302.76 2590.71,1490.28 2590.71,1490.28
                     2590.71,1490.28 2507.69,1517.85 2462.41,1485.34
                     2411.77,1448.98 2398.26,1352.10 2398.26,1352.10
                     2398.26,1352.10 2506.82,1248.48 2506.82,1248.48
                     2506.82,1248.48 2482.15,1179.39 2482.15,1179.39 Z" />

        <path id="mouth"
              fill="black" stroke="none" stroke-width="1"
              d="M 2033.09,1894.92
               C 1988.68,2013.35 1804.74,2074.43 1702.47,2042.96
                 1573.78,2003.37 1559.36,1746.88 1559.36,1746.88
                 1559.36,1746.88 1751.81,1500.15 1751.81,1500.15
                 1751.81,1500.15 1909.72,1667.92 1894.92,1653.12
                 1894.92,1653.12 2057.76,1510.01 2057.76,1510.01
                 2057.76,1510.01 2067.29,1572.46 2097.24,1613.64
                 2126.50,1653.87 2176.20,1672.86 2176.20,1672.86
                 2176.20,1672.86 2309.43,1667.92 2388.39,1628.45
                 2432.80,1924.53 2200.87,1944.27 2200.87,1944.27
                 2200.87,1944.27 2077.50,1909.72 2033.09,1894.92 Z" />

        <path id="stalk"
              fill="Sienna" stroke="SaddleBrown" stroke-width="1"
              d="M 1850.51,177.65
           C 1850.51,182.58 2215.67,261.54 2215.67,261.54
             2215.67,261.54 2195.94,439.19 2195.94,439.19
             2195.94,439.19 2063.64,521.41 1959.07,503.34
             1864.27,486.95 1796.23,370.10 1796.23,370.10
             1796.23,370.10 1850.51,172.71 1850.51,177.65 Z" />
    </svg>

</svg>
